<svg width="16" height="16" viewBox="0 0 16 16" fill="none" xmlns="http://www.w3.org/2000/svg">
<path fill-rule="evenodd" clip-rule="evenodd" d="M3.75 0H12.25C14.3211 0 16 1.67893 16 3.75V12.25C16 14.3211 14.3211 16 12.25 16H3.75C1.67893 16 0 14.3211 0 12.25V3.75C0 1.67893 1.67893 0 3.75 0ZM9.7874 3.26065C10.6661 3.41255 11.5213 3.67783 12.3317 4.04984C12.3387 4.05269 12.3445 4.05797 12.348 4.06472C13.7596 6.14097 14.4568 8.48315 14.1961 11.1795C14.1956 11.1851 14.1939 11.1906 14.1911 11.1956C14.1883 11.2005 14.1845 11.2048 14.1799 11.2082C13.1107 11.9934 12.075 12.4701 11.0536 12.786C11.0457 12.7884 11.0372 12.7883 11.0293 12.7856C11.0215 12.783 11.0146 12.7779 11.0098 12.7712C10.772 12.4412 10.5588 12.0942 10.3718 11.733C10.3692 11.728 10.3677 11.7226 10.3674 11.717C10.3671 11.7114 10.3679 11.7058 10.3699 11.7005C10.3719 11.6953 10.375 11.6905 10.379 11.6865C10.383 11.6826 10.3877 11.6795 10.393 11.6775C10.7306 11.5504 11.057 11.3951 11.3685 11.2132C11.3742 11.2098 11.3789 11.2051 11.3823 11.1995C11.3857 11.1938 11.3876 11.1875 11.3879 11.1809C11.3883 11.1743 11.387 11.1678 11.3842 11.1618C11.3814 11.1558 11.3772 11.1507 11.372 11.1467C11.306 11.0976 11.2413 11.0468 11.1778 10.9945C11.1722 10.9898 11.1653 10.9869 11.1581 10.986C11.1508 10.9851 11.1435 10.9863 11.1369 10.9895C9.11534 11.9235 6.90065 11.9235 4.8549 10.9895C4.84833 10.9865 4.84106 10.9855 4.83393 10.9865C4.82679 10.9874 4.82007 10.9904 4.81452 10.995C4.75114 11.047 4.68659 11.0976 4.6209 11.1467C4.61566 11.1507 4.61149 11.1559 4.60874 11.1619C4.60599 11.1679 4.60476 11.1744 4.60515 11.181C4.60554 11.1876 4.60754 11.194 4.61097 11.1996C4.6144 11.2052 4.61917 11.2099 4.62484 11.2132C4.93621 11.3918 5.2599 11.549 5.5999 11.678C5.60515 11.6799 5.60994 11.6829 5.61394 11.6868C5.61794 11.6907 5.62107 11.6954 5.62312 11.7006C5.62517 11.7058 5.62609 11.7114 5.62583 11.717C5.62556 11.7226 5.62412 11.728 5.62159 11.733C5.43777 12.0971 5.22346 12.4433 4.98302 12.7717C4.97805 12.7782 4.97118 12.7831 4.96334 12.7857C4.95549 12.7883 4.94706 12.7884 4.93915 12.786C3.92271 12.4701 2.88702 11.9934 1.8179 11.2082C1.81337 11.2047 1.80959 11.2003 1.8068 11.1952C1.80401 11.1902 1.80226 11.1847 1.80165 11.179C1.5839 8.84672 2.02777 6.48522 3.64827 4.06422C3.65224 4.05781 3.65809 4.05279 3.66502 4.04984C4.47531 3.67754 5.33059 3.41225 6.20934 3.26065C6.21732 3.25939 6.22549 3.26057 6.23279 3.26403C6.2401 3.26748 6.24619 3.27306 6.25027 3.28003C6.36065 3.4754 6.48677 3.7259 6.57202 3.93078C7.51309 3.7869 8.4689 3.7869 9.42971 3.93078C9.5149 3.7304 9.63665 3.4754 9.74652 3.28003C9.75044 3.27291 9.75649 3.26721 9.76383 3.26373C9.77117 3.26025 9.77941 3.25918 9.7874 3.26065ZM4.80365 8.49903C4.80365 9.19347 5.31115 9.7589 5.92709 9.7589C6.55284 9.7589 7.0504 9.19347 7.0504 8.49903C7.06027 7.80959 6.55771 7.23915 5.92709 7.23915C5.30134 7.23915 4.80365 7.80459 4.80365 8.49903ZM8.95721 8.49903C8.95721 9.19347 9.46465 9.7589 10.0806 9.7589C10.7112 9.7589 11.204 9.19347 11.204 8.49903C11.2138 7.80959 10.7112 7.23915 10.0806 7.23915C9.45484 7.23915 8.95721 7.80459 8.95721 8.49903Z" fill="#618DF7"/>
</svg>
