<svg width="16" height="16" viewBox="0 0 16 16" fill="none" xmlns="http://www.w3.org/2000/svg">
<path d="M13 0C13.8264 0 14.533 0.293403 15.1198 0.880208C15.7066 1.46701 16 2.17361 16 3V13C16 13.8264 15.7066 14.533 15.1198 15.1198C14.533 15.7066 13.8264 16 13 16H11.0417V9.80208H13.1146L13.4271 7.38542H11.0417V5.84375C11.0417 5.45486 11.1233 5.16319 11.2865 4.96875C11.4497 4.77431 11.7674 4.67708 12.2396 4.67708L13.5104 4.66667V2.51042C13.0729 2.44792 12.4549 2.41667 11.6563 2.41667C10.7118 2.41667 9.9566 2.69444 9.39063 3.25C8.82465 3.80556 8.54167 4.59028 8.54167 5.60417V7.38542H6.45833V9.80208H8.54167V16H3C2.17361 16 1.46701 15.7066 0.880208 15.1198C0.293403 14.533 0 13.8264 0 13V3C0 2.17361 0.293403 1.46701 0.880208 0.880208C1.46701 0.293403 2.17361 0 3 0H13Z" fill="#618DF7"/>
</svg>
