<svg width="240" height="240" viewBox="0 0 240 240" fill="none" xmlns="http://www.w3.org/2000/svg">
<path d="M153.789 27C171.156 30.008 187.767 35.2906 203.303 42.5593C230.467 83.1246 243.964 128.876 238.98 181.646C218.197 197.186 198.036 206.614 178.216 212.783C173.308 206.055 168.966 198.882 165.21 191.363C172.364 188.645 179.235 185.29 185.728 181.376C184.03 180.104 182.35 178.773 180.707 177.404C141.689 195.875 98.782 195.875 59.2918 177.404C57.6686 178.773 55.9884 180.104 54.2707 181.376C60.7453 185.271 67.5975 188.626 74.7518 191.344C70.9953 198.883 66.6349 206.035 61.7457 212.764C41.9441 206.595 21.8025 197.166 1.01917 181.646C-3.22811 136.126 5.26643 89.9499 36.6019 42.5978C52.1376 35.31 68.7681 30.008 86.1536 27C88.3056 30.8561 90.8539 36.0427 92.5716 40.1685C110.693 37.3922 128.985 37.3922 147.446 40.1685C149.164 36.0427 151.656 30.8561 153.789 27ZM80.1318 104.545C68.0696 104.545 58.5555 115.631 58.5555 129.108C58.5555 142.585 68.2772 153.651 80.1318 153.651C92.1942 153.651 101.727 142.585 101.708 129.108C101.916 115.612 92.1942 104.545 80.1318 104.545ZM159.867 104.545C147.805 104.545 138.291 115.631 138.291 129.108C138.291 142.585 148.013 153.651 159.867 153.651C171.93 153.651 181.444 142.585 181.444 129.108C181.651 115.612 171.93 104.545 159.867 104.545Z" fill="#618DF7"/>
</svg>
