<svg width="16" height="16" viewBox="0 0 16 16" fill="none" xmlns="http://www.w3.org/2000/svg">
<path d="M7.99964 5.33714C6.52542 5.33714 5.3369 6.53714 5.3369 8C5.3369 9.46286 6.53685 10.6629 7.99964 10.6629C9.46244 10.6629 10.6624 9.46286 10.6624 8C10.6624 6.53714 9.46244 5.33714 7.99964 5.33714ZM15.9993 8C15.9993 6.89143 15.9993 5.80571 15.9421 4.69714C15.885 3.41714 15.5879 2.27429 14.6508 1.34857C13.7137 0.411429 12.5823 0.114286 11.3024 0.0571428C10.1938 -5.53472e-08 9.10817 0 7.99964 0C6.89112 0 5.80546 -5.53472e-08 4.69693 0.0571428C3.41699 0.114286 2.27418 0.411429 1.34851 1.34857C0.41141 2.28571 0.114281 3.41714 0.0571403 4.69714C-5.53447e-08 5.80571 0 6.89143 0 8C0 9.10857 -5.53447e-08 10.1943 0.0571403 11.3029C0.114281 12.5829 0.41141 13.7257 1.34851 14.6514C2.28561 15.5886 3.41699 15.8857 4.69693 15.9429C5.80546 16 6.89112 16 7.99964 16C9.10817 16 10.1938 16 11.3024 15.9429C12.5823 15.8857 13.7251 15.5886 14.6508 14.6514C15.5879 13.7143 15.885 12.5829 15.9421 11.3029C16.0107 10.2057 15.9993 9.10857 15.9993 8ZM7.99964 12.1029C5.72546 12.1029 3.89697 10.2743 3.89697 8C3.89697 5.72571 5.72546 3.89714 7.99964 3.89714C10.2738 3.89714 12.1023 5.72571 12.1023 8C12.1023 10.2743 10.2738 12.1029 7.99964 12.1029ZM12.2737 4.68571C11.748 4.68571 11.3138 4.26286 11.3138 3.72571C11.3138 3.18857 11.7366 2.76571 12.2737 2.76571C12.8109 2.76571 13.2337 3.18857 13.2337 3.72571C13.2366 3.8509 13.2137 3.97534 13.1666 4.09133C13.1194 4.20732 13.0489 4.31238 12.9594 4.4C12.8718 4.48946 12.7668 4.55996 12.6508 4.60714C12.5348 4.65432 12.4103 4.67718 12.2852 4.67429L12.2737 4.68571Z" fill="#618DF7"/>
</svg>
