<svg width="16" height="16" viewBox="0 0 16 16" fill="none" xmlns="http://www.w3.org/2000/svg">
<path fill-rule="evenodd" clip-rule="evenodd" d="M4 0C1.79089 0 0 1.79086 0 4V12C0 14.2091 1.79089 16 4 16H12C14.2091 16 16 14.2091 16 12V4C16 1.79086 14.2091 0 12 0H4ZM7 5C7 4.44772 7.44775 4 8 4C8.55225 4 9 4.44772 9 5V7H11C11.5522 7 12 7.44772 12 8C12 8.55228 11.5522 9 11 9H9V11C9 11.5523 8.55225 12 8 12C7.44775 12 7 11.5523 7 11V9H5C4.44775 9 4 8.55228 4 8C4 7.44772 4.44775 7 5 7H7V5Z" fill="white"/>
</svg>
