<svg width="16" height="16" viewBox="0 0 16 16" fill="none" xmlns="http://www.w3.org/2000/svg">
<path d="M3.13403 0C1.41056 0 0 1.41053 0 3.13403V12.8595C0 14.583 1.41053 15.993 3.13403 15.993H12.8595C14.583 15.993 15.993 14.583 15.993 12.8595V3.13403C15.993 1.41056 14.583 0 12.8595 0H3.13403ZM3.92229 2.63917C4.74866 2.63917 5.25766 3.18166 5.27338 3.89477C5.27338 4.59213 4.74862 5.14987 3.9063 5.14987H3.8908C3.08016 5.14987 2.55621 4.59216 2.55621 3.89477C2.55621 3.18168 3.09602 2.63917 3.92227 2.63917H3.92229ZM11.0436 5.97213C12.6328 5.97213 13.8242 7.01088 13.8242 9.2431V13.4103H11.409V9.5225C11.409 8.54554 11.0594 7.87901 10.1853 7.87901C9.51808 7.87901 9.12035 8.32826 8.94573 8.76224C8.88194 8.9175 8.86626 9.13435 8.86626 9.35155V13.4103H6.45101C6.45101 13.4103 6.4827 6.82448 6.45101 6.14256H8.86675V7.17174C9.18771 6.67654 9.76182 5.97211 11.0436 5.97211V5.97213ZM2.69867 6.14309H5.11392V13.4103H2.69867V6.14309Z" fill="#618DF7"/>
</svg>
