<svg width="48" height="48" viewBox="0 0 48 48" fill="none" xmlns="http://www.w3.org/2000/svg">
<path fill-rule="evenodd" clip-rule="evenodd" d="M24 48C12.6864 48 7.0296 48 3.5136 44.484C0 40.9728 0 35.3136 0 24C0 12.6864 0 7.0296 3.5136 3.5136C7.032 0 12.6864 0 24 0C35.3136 0 40.9704 0 44.484 3.5136C48 7.032 48 12.6864 48 24C48 35.3136 48 40.9704 44.484 44.484C40.9728 48 35.3136 48 24 48ZM16.728 16.728C17.0655 16.3909 17.523 16.2016 18 16.2016C18.477 16.2016 18.9345 16.3909 19.272 16.728L24 21.456L28.728 16.728C29.0692 16.41 29.5205 16.237 29.9869 16.2452C30.4532 16.2534 30.8981 16.4423 31.2279 16.7721C31.5577 17.1019 31.7466 17.5468 31.7548 18.0131C31.763 18.4795 31.59 18.9308 31.272 19.272L26.544 24L31.272 28.728C31.4488 28.8928 31.5907 29.0915 31.6891 29.3123C31.7875 29.5331 31.8404 29.7715 31.8446 30.0131C31.8489 30.2548 31.8044 30.4949 31.7139 30.719C31.6234 30.9432 31.4886 31.1468 31.3177 31.3177C31.1468 31.4886 30.9432 31.6234 30.719 31.7139C30.4949 31.8044 30.2548 31.8489 30.0131 31.8446C29.7715 31.8404 29.5331 31.7875 29.3123 31.6891C29.0915 31.5907 28.8928 31.4488 28.728 31.272L24 26.544L19.272 31.272C19.1072 31.4488 18.9085 31.5907 18.6877 31.6891C18.4669 31.7875 18.2285 31.8404 17.9869 31.8446C17.7452 31.8489 17.5051 31.8044 17.281 31.7139C17.0568 31.6234 16.8532 31.4886 16.6823 31.3177C16.5114 31.1468 16.3766 30.9432 16.2861 30.719C16.1956 30.4949 16.1511 30.2548 16.1554 30.0131C16.1596 29.7715 16.2125 29.5331 16.3109 29.3123C16.4093 29.0915 16.5512 28.8928 16.728 28.728L21.456 24L16.728 19.272C16.3909 18.9345 16.2016 18.477 16.2016 18C16.2016 17.523 16.3909 17.0655 16.728 16.728Z" fill="#618DF7"/>
</svg>
