<svg width="48" height="48" viewBox="0 0 48 48" fill="none" xmlns="http://www.w3.org/2000/svg">
<path fill-rule="evenodd" clip-rule="evenodd" d="M3.5136 44.484C7.032 48 12.6864 48 24 48C35.3136 48 40.9704 48 44.484 44.484C48 40.9728 48 35.3136 48 24C48 12.6864 48 7.0296 44.484 3.5136C40.9728 0 35.3136 0 24 0C12.6864 0 7.0296 0 3.5136 3.5136C0 7.032 0 12.6864 0 24C0 35.3136 0 40.9704 3.5136 44.484ZM40.2 33.6C40.2 34.0774 40.0104 34.5352 39.6728 34.8728C39.3352 35.2104 38.8774 35.4 38.4 35.4H9.6C9.12261 35.4 8.66477 35.2104 8.32721 34.8728C7.98964 34.5352 7.8 34.0774 7.8 33.6C7.8 33.1226 7.98964 32.6648 8.32721 32.3272C8.66477 31.9896 9.12261 31.8 9.6 31.8H38.4C38.8774 31.8 39.3352 31.9896 39.6728 32.3272C40.0104 32.6648 40.2 33.1226 40.2 33.6ZM38.4 25.8C38.8774 25.8 39.3352 25.6104 39.6728 25.2728C40.0104 24.9352 40.2 24.4774 40.2 24C40.2 23.5226 40.0104 23.0648 39.6728 22.7272C39.3352 22.3896 38.8774 22.2 38.4 22.2H9.6C9.12261 22.2 8.66477 22.3896 8.32721 22.7272C7.98964 23.0648 7.8 23.5226 7.8 24C7.8 24.4774 7.98964 24.9352 8.32721 25.2728C8.66477 25.6104 9.12261 25.8 9.6 25.8H38.4ZM40.2 14.4C40.2 14.8774 40.0104 15.3352 39.6728 15.6728C39.3352 16.0104 38.8774 16.2 38.4 16.2H9.6C9.12261 16.2 8.66477 16.0104 8.32721 15.6728C7.98964 15.3352 7.8 14.8774 7.8 14.4C7.8 13.9226 7.98964 13.4648 8.32721 13.1272C8.66477 12.7896 9.12261 12.6 9.6 12.6H38.4C38.8774 12.6 39.3352 12.7896 39.6728 13.1272C40.0104 13.4648 40.2 13.9226 40.2 14.4Z" fill="#618DF7"/>
</svg>
