<svg width="16" height="16" viewBox="0 0 16 16" fill="none" xmlns="http://www.w3.org/2000/svg">
<path fill-rule="evenodd" clip-rule="evenodd" d="M3.75 0H12.25C14.3211 0 16 1.67893 16 3.75V12.25C16 14.3211 14.3211 16 12.25 16H3.75C1.67893 16 0 14.3211 0 12.25V3.75C0 1.67893 1.67893 0 3.75 0ZM12.4801 6.01168C12.4801 5.91156 12.4801 5.81237 12.4733 5.71318C12.9252 5.38632 13.3153 4.9815 13.625 4.51762C13.2039 4.70455 12.7571 4.82703 12.2996 4.88093C12.7813 4.59248 13.1419 4.13885 13.3142 3.60443C12.861 3.87321 12.3654 4.0627 11.8485 4.16475C10.9746 3.23562 9.51256 3.19081 8.58294 4.06468C8.28834 4.34163 8.07161 4.69107 7.95444 5.07806C7.83727 5.46505 7.82375 5.87602 7.91525 6.26987C6.99758 6.22401 6.09982 5.98562 5.28028 5.57019C4.46075 5.15475 3.73777 4.57156 3.15831 3.8585C2.54594 4.91337 2.85856 6.26256 3.87269 6.94037C3.50543 6.92936 3.14618 6.83029 2.82519 6.6515V6.68075C2.82519 7.7795 3.59987 8.72556 4.67662 8.94312C4.33691 9.03595 3.98042 9.04955 3.63462 8.98287C3.78216 9.44144 4.0693 9.84244 4.4559 10.1298C4.8425 10.4172 5.30925 10.5766 5.79087 10.5857C4.97343 11.2278 3.96385 11.5764 2.92438 11.5756C2.74063 11.5752 2.55737 11.5642 2.375 11.5423C3.43056 12.2196 4.65876 12.5788 5.91294 12.577V12.5789C10.1584 12.5789 12.4801 9.0615 12.4801 6.01168Z" fill="#618DF7"/>
</svg>
